# xmcd
#
# Track frame offsets:
#	150
#	16877
#	23088
#	46893
#	67284
#	89949
#	108338
#	130035
#	162857
#	167207
#	192518
#	224639
#
# Disc length: 3198 seconds
#
# Revision: 1
# Processed by: cddbd v1.5.2PL0 Copyright (c) Steve Scherf et al.
# Submitted via: audiograbber 1.83.01
#
DISCID=af0c7c0c
DTITLE=Peter Reimer - Islands Of Tranquility
DYEAR=2013
DGENRE=Instrumental
TTITLE0=Concerned
TTITLE1=Intro Complaint
TTITLE2=Complaint
TTITLE3=September Sun
TTITLE4=Wings
TTITLE5=Iceland
TTITLE6=Dominik
TTITLE7=Rising
TTITLE8=Intro Lake Tahoe
TTITLE9=Lake Tahoe
TTITLE10=Hope
TTITLE11=Time After Time
EXTD=
EXTT0=
EXTT1=
EXTT2=
EXTT3=
EXTT4=
EXTT5=
EXTT6=
EXTT7=
EXTT8=
EXTT9=
EXTT10=
EXTT11=
PLAYORDER=
